<svg xmlns="http://www.w3.org/2000/svg" xmlns:xlink="http://www.w3.org/1999/xlink" fill="none" version="1.1" width="20" height="20" viewBox="0 0 20 20"><defs><clipPath id="master_svg0_16_5338"><rect x="0" y="0" width="20" height="20" rx="0"/></clipPath></defs><g clip-path="url(#master_svg0_16_5338)"><g><g><ellipse cx="9.999836921691895" cy="10.000020027160645" rx="7.0833330154418945" ry="7.0833330154418945" fill-opacity="0" stroke-opacity="1" stroke="#FFFFFF" fill="none" stroke-width="0.8333333134651184"/></g><g><path d="M2.91650390625,10.41685010546875L16.87480390625,10.41685010546875L16.87480390625,10.41518310546875Q16.915703906250002,10.41518310546875,16.95580390625,10.40720910546875Q16.99590390625,10.39923510546875,17.03360390625,10.38359310546875Q17.071403906249998,10.36795110546875,17.10540390625,10.34524310546875Q17.13940390625,10.32253510546875,17.16830390625,10.29363210546875Q17.19720390625,10.26473010546875,17.21990390625,10.23074510546875Q17.24260390625,10.19675910546875,17.25820390625,10.15899710546875Q17.27390390625,10.12123410546875,17.28190390625,10.08114560546875Q17.28980390625,10.04105700546875,17.28980390625,10.00018310546875Q17.28980390625,9.95930920546875,17.28190390625,9.91922060546875Q17.27390390625,9.87913210546875,17.25820390625,9.84136910546875Q17.24260390625,9.80360710546875,17.21990390625,9.76962110546875Q17.19720390625,9.73563610546875,17.16830390625,9.70673410546875Q17.13940390625,9.67783110546875,17.10540390625,9.65512310546875Q17.071403906249998,9.63241510546875,17.03360390625,9.61677310546875Q16.99590390625,9.60113110546875,16.95580390625,9.59315710546875Q16.915703906250002,9.58518310546875,16.87480390625,9.58518310546875L16.87480390625,9.58351610546875L2.91650390625,9.58351610546875L2.91650390625,9.58518310546875Q2.87563000625,9.58518310546875,2.83554140625,9.59315710546875Q2.79545290625,9.60113110546875,2.75768990625,9.61677310546875Q2.71992790625,9.63241510546875,2.68594190625,9.65512310546875Q2.65195690625,9.67783110546875,2.62305490625,9.70673410546875Q2.59415190625,9.73563610546875,2.57144390625,9.76962110546875Q2.54873590625,9.80360710546875,2.53309390625,9.84136910546875Q2.51745190625,9.87913210546875,2.50947790625,9.91922060546875Q2.50150390625,9.95930920546875,2.50150390625,10.00018310546875Q2.50150390625,10.04105700546875,2.50947790625,10.08114560546875Q2.51745190625,10.12123410546875,2.53309390625,10.15899710546875Q2.54873590625,10.19675910546875,2.57144390625,10.23074510546875Q2.59415190625,10.26473010546875,2.62305490625,10.29363210546875Q2.65195690625,10.32253510546875,2.68594190625,10.34524310546875Q2.71992790625,10.36795110546875,2.75768990625,10.38359310546875Q2.79545290625,10.39923510546875,2.83554140625,10.40720910546875Q2.87563000625,10.41518310546875,2.91650390625,10.41518310546875L2.91650390625,10.41685010546875Z" fill-rule="evenodd" fill="#FFFFFF" fill-opacity="1"/></g><g><path d="M9.706552,3.21013801171875Q9.648181,3.15176701171875,9.61659,3.07550201171875Q9.585,2.99923621171875,9.585,2.91668701171875Q9.585,2.87581311171875,9.592974,2.83572451171875Q9.600948,2.79563601171875,9.61659,2.75787301171875Q9.632232,2.72011101171875,9.65494,2.68612501171875Q9.677648,2.65214001171875,9.706551,2.62323801171875Q9.735453,2.59433501171875,9.769438,2.57162701171875Q9.803424,2.54891901171875,9.841186,2.53327701171875Q9.878949,2.51763501171875,9.9190375,2.50966101171875Q9.9591261,2.50168701171875,10,2.50168701171875Q10.0825491,2.50168701171875,10.158814,2.53327701171875Q10.23508,2.56486801171875,10.293451,2.62323901171875L10.294628,2.62206201171875Q11.51684,3.84427501171875,12.23688,5.80703701171875Q12.93328,7.70537701171875,12.99462,9.83175701171875Q13.05824,12.03738701171875,12.41646,13.94778701171875Q11.71457,16.03718701171875,10.286093,17.38628701171875L10.284949,17.385087011718753Q10.227171,17.43958701171875,10.153322,17.468987011718752Q10.0794722,17.498387011718748,10,17.498387011718748Q9.9591261,17.498387011718748,9.9190375,17.490387011718752Q9.878949,17.48238701171875,9.841186,17.46678701171875Q9.803424,17.451087011718748,9.769438,17.428387011718748Q9.735453,17.40568701171875,9.706551,17.37678701171875Q9.677648,17.34788701171875,9.65494,17.313887011718748Q9.632232,17.27988701171875,9.61659,17.242187011718748Q9.600948,17.20438701171875,9.592974,17.16428701171875Q9.585,17.12418701171875,9.585,17.08338701171875Q9.585,16.99768701171875,9.618897,16.91908701171875Q9.652794,16.84048701171875,9.715051,16.781687011718752L9.713907,16.78038701171875Q10.990951,15.57428701171875,11.62651,13.68248701171875Q12.22097,11.91287701171875,12.16163,9.85578701171875Q12.10421,7.86501701171875,11.45453,6.09404701171875Q10.797736,4.30367701171875,9.705372,3.21131801171875L9.706552,3.21013801171875Z" fill-rule="evenodd" fill="#FFFFFF" fill-opacity="1"/></g><g transform="matrix(-1,0,0,1,20.1669921875,0)"><path d="M9.79004809375,3.21013801171875Q9.73167709375,3.15176701171875,9.70008609375,3.07550201171875Q9.66849609375,2.99923621171875,9.66849609375,2.91668701171875Q9.66849609375,2.87581311171875,9.67647009375,2.83572451171875Q9.68444409375,2.79563601171875,9.70008609375,2.75787301171875Q9.71572809375,2.72011101171875,9.73843609375,2.68612501171875Q9.76114409375,2.65214001171875,9.79004709375,2.62323801171875Q9.81894909375,2.59433501171875,9.85293409375,2.57162701171875Q9.88692009375,2.54891901171875,9.92468209375,2.53327701171875Q9.96244509375,2.51763501171875,10.00253359375,2.50966101171875Q10.04262219375,2.50168701171875,10.08349609375,2.50168701171875Q10.16604519375,2.50168701171875,10.24231009375,2.53327701171875Q10.31857609375,2.56486801171875,10.37694709375,2.62323901171875L10.37812409375,2.62206201171875Q11.60033609375,3.84427501171875,12.32037609375,5.80703701171875Q13.01677609375,7.70537701171875,13.07811609375,9.83175701171875Q13.14173609375,12.03738701171875,12.49995609375,13.94778701171875Q11.79806609375,16.03718701171875,10.36958909375,17.38628701171875L10.36844509375,17.385087011718753Q10.31066709375,17.43958701171875,10.23681809375,17.468987011718752Q10.16296829375,17.498387011718748,10.08349609375,17.498387011718748Q10.04262219375,17.498387011718748,10.00253359375,17.490387011718752Q9.96244509375,17.48238701171875,9.92468209375,17.46678701171875Q9.88692009375,17.451087011718748,9.85293409375,17.428387011718748Q9.81894909375,17.40568701171875,9.79004709375,17.37678701171875Q9.76114409375,17.34788701171875,9.73843609375,17.313887011718748Q9.71572809375,17.27988701171875,9.70008609375,17.242187011718748Q9.68444409375,17.20438701171875,9.67647009375,17.16428701171875Q9.66849609375,17.12418701171875,9.66849609375,17.08338701171875Q9.66849609375,16.99768701171875,9.70239309375,16.91908701171875Q9.73629009375,16.84048701171875,9.79854709375,16.781687011718752L9.79740309375,16.78038701171875Q11.07444709375,15.57428701171875,11.71000609375,13.68248701171875Q12.30446609375,11.91287701171875,12.24512609375,9.85578701171875Q12.18770609375,7.86501701171875,11.53802609375,6.09404701171875Q10.88123209375,4.30367701171875,9.78886809375,3.21131801171875L9.79004809375,3.21013801171875Z" fill-rule="evenodd" fill="#FFFFFF" fill-opacity="1"/></g></g></g></svg>